<?xml version="1.0" encoding="utf-8"?>
<!-- Generator: Adobe Illustrator 25.2.1, SVG Export Plug-In . SVG Version: 6.00 Build 0)  -->
<svg version="1.1" id="gebgdbgh" xmlns="http://www.w3.org/2000/svg" xmlns:xlink="http://www.w3.org/1999/xlink" x="0px" y="0px"
	 viewBox="0 0 326 54" style="enable-background:new 0 0 326 54;" xml:space="preserve">
<style type="text/css">
	.st0{fill:#3FC1C9;}
	.st1{fill:#819AB1;}
	.st2{fill:#507DA2;}
</style>
<g>
	<g id="SvgjsG1049" transform="matrix(5.103969330990312,0,0,5.103969330990312,-2.5519855781559926,-49.712655248115304)">
		<path class="st0" d="M5.9,9.8c0.4,0,0.9,0,1.3,0.1s0.8,0.3,1.2,0.5v9.3c-0.4,0.2-0.8,0.4-1.2,0.5c-0.4,0.1-0.9,0.1-1.3,0.1
			c-0.7,0-1.4-0.1-2.1-0.4c-0.6-0.3-1.2-0.7-1.7-1.1c-0.5-0.5-0.9-1-1.1-1.7c-0.3-0.6-0.4-1.3-0.4-2S0.7,13.7,1,13
			c0.3-0.6,0.7-1.2,1.1-1.7c0.5-0.5,1-0.9,1.7-1.1C4.5,9.9,5.1,9.8,5.9,9.8z"/>
	</g>
	<g id="SvgjsG1050" transform="matrix(2.521008618865763,0,0,2.521008618865763,58.184870867277375,-6.176476645929814)">
		<path class="st1" d="M8.8,11.8v-0.2c0-2-0.7-3-2.2-3C5.8,8.6,5.2,9,4.8,9.7s-0.6,1.9-0.6,3.4s0.2,2.6,0.7,3.3s1.1,1.1,2,1.1
			c0.5,0,1-0.1,1.5-0.3s1.2-0.6,1.8-1c0.3,0.2,0.6,0.5,0.9,0.9s0.5,0.8,0.5,1.1c-0.3,0.3-0.7,0.6-1.1,0.8c-0.4,0.3-0.8,0.5-1.3,0.7
			s-1,0.3-1.5,0.4s-1,0.2-1.5,0.2c-1,0-1.9-0.2-2.6-0.6c-0.7-0.4-1.3-0.9-1.7-1.6S1.2,16.7,1,15.8s-0.3-1.7-0.3-2.7
			c0-1.2,0.1-2.2,0.5-3.1c0.3-0.9,0.7-1.7,1.2-2.2c0.5-0.6,1.1-1.1,1.8-1.4S5.6,6,6.4,6s1.5,0.1,2.2,0.3s1.2,0.5,1.7,0.9
			s0.8,0.8,1.1,1.3c0.2,0.5,0.4,1.1,0.4,1.6c0,1.2-0.6,1.8-1.8,1.8C9.7,12,9.3,12,8.8,11.8z M16.7,16.3c0.4,1,1.1,1.6,2.2,1.6
			c0.5,0,1-0.1,1.3-0.4s0.6-0.6,0.8-1s0.3-0.9,0.4-1.4c0.1-0.5,0.1-1,0.1-1.5s0-1,0-1.6s-0.1-1.1-0.3-1.6s-0.4-0.9-0.8-1.3
			c-0.3-0.3-0.9-0.5-1.5-0.5s-1.1,0.2-1.5,0.5c-0.3,0.3-0.6,0.7-0.8,1.2s-0.3,1-0.3,1.5s-0.1,1-0.1,1.4c0,0.6,0,1.2,0.1,1.6
			C16.5,15.3,16.6,15.8,16.7,16.3z M15.1,19.1C13.7,17.9,13,16,13,13.2c0-1.2,0.1-2.2,0.4-3.1c0.3-0.9,0.7-1.6,1.2-2.2
			c0.5-0.6,1.1-1.1,1.9-1.4S18.1,6,19,6s1.8,0.2,2.5,0.5s1.4,0.8,1.9,1.4c0.5,0.6,0.9,1.4,1.2,2.2C24.9,11,25,12,25,13.2
			s-0.1,2.2-0.4,3.1s-0.7,1.6-1.2,2.2s-1.1,1.1-1.9,1.4c-0.7,0.3-1.6,0.5-2.5,0.5C17.4,20.4,16.1,19.9,15.1,19.1z M36,19.2
			c-0.4,0.3-1,0.6-1.7,0.8c-0.7,0.2-1.5,0.2-2.3,0.2c-0.4,0-1,0-1.8,0s-1.8,0-2.9-0.1L27.2,20V6.5l0.1-0.1c0.8,0,1.6,0,2.4-0.1
			c0.8,0,1.7,0,2.6,0c1.1,0,2.1,0.2,2.8,0.5c0.8,0.4,1.4,0.9,1.8,1.5c0.5,0.6,0.8,1.4,1,2.2c0.2,0.8,0.3,1.8,0.3,2.7
			c0,1.3-0.2,2.5-0.5,3.5C37.4,17.7,36.8,18.5,36,19.2z M32.3,17.7c1.8,0,2.6-1.5,2.6-4.4c0-3-0.9-4.5-2.6-4.5h-1.1c0,0-0.3,0-0.9,0
			v8.9c0.2,0,0.5,0,0.9,0C31.1,17.7,32.3,17.7,32.3,17.7z M43.6,16v1.4l0,0c0.6,0,1.1,0,1.5,0h4.6c0,0.5,0,0.9-0.1,1.1
			c-0.2,1-0.8,1.5-2,1.5h-5.3c-0.6,0-1-0.2-1.3-0.5s-0.5-0.8-0.5-1.4V6.5l0.1-0.1h8.6c0.1,0.4,0.1,0.8,0.1,1.3S49.2,8.6,49,9.1h-5.5
			v1.4v1.4c0.3,0,0.8,0,1.4,0H48c0.1,0.4,0.2,0.8,0.2,1.3s-0.1,0.9-0.2,1.3h-4.4L43.6,16L43.6,16z"/>
	</g>
	<g id="SvgjsG1051" transform="matrix(2.5245441390026437,0,0,2.5245441390026437,184.18232814769033,-6.2482452994757995)">
		<path class="st2" d="M6.9,12.3H10c1.4,0,2.1,0.7,2.1,2v5.3c-1.7,0.5-3.5,0.8-5.4,0.8c-1,0-1.8-0.2-2.6-0.5
			c-0.7-0.3-1.4-0.8-1.9-1.4s-0.9-1.3-1.1-2.2c-0.3-0.9-0.4-1.9-0.4-3c0-1.2,0.2-2.3,0.5-3.2S2,8.4,2.6,7.9c0.6-0.6,1.3-1,2-1.3
			C5.4,6.3,6.2,6.1,7,6.1c1.7,0,3.4,0.5,4.9,1.4c0,0.2-0.1,0.4-0.1,0.7s-0.2,0.4-0.3,0.6c-0.1,0.2-0.3,0.4-0.4,0.6
			c-0.2,0.2-0.3,0.3-0.5,0.4C9.5,9.1,8.4,8.7,7.2,8.7c-2.2,0-3.3,1.5-3.3,4.6c0,3,1.1,4.5,3.3,4.5c0.3,0,0.6,0,0.9,0
			c0.3,0,0.6-0.1,0.9-0.1v-1.3c0-0.3,0-0.6,0-0.8s0-0.4,0-0.6H8c-0.6,0-1-0.1-1.2-0.3c-0.2-0.2-0.3-0.6-0.3-1
			C6.7,13.2,6.8,12.8,6.9,12.3z M24.5,10.6c0,0.4-0.1,0.9-0.2,1.2c-0.1,0.4-0.3,0.7-0.5,1.1c-0.2,0.3-0.5,0.6-0.8,0.8
			c-0.3,0.2-0.6,0.4-0.9,0.5c0.7,0.3,1.2,0.9,1.5,1.8l0.6,1.7c0.2,0.7,0.6,1.2,1,1.5c-0.2,0.3-0.5,0.5-0.9,0.7
			c-0.4,0.2-0.8,0.3-1.3,0.3s-0.9-0.1-1.1-0.4c-0.3-0.3-0.5-0.8-0.7-1.4l-0.7-2.1c-0.1-0.4-0.3-0.7-0.6-0.9
			c-0.2-0.2-0.6-0.3-1.1-0.3H18v5c-0.4,0.1-1,0.1-1.6,0.1s-1.2,0-1.6-0.1V6.5l0.1-0.1c1.2,0,2.1,0,2.9-0.1s1.4,0,1.9,0
			c0.7,0,1.4,0.1,2,0.3c0.6,0.2,1.1,0.5,1.5,0.8c0.4,0.4,0.7,0.8,1,1.4C24.4,9.3,24.5,9.9,24.5,10.6z M17.9,8.7v3.9
			c0.6,0,1.1,0,1.5,0s0.8-0.1,1-0.2s0.5-0.3,0.6-0.6c0.1-0.3,0.2-0.6,0.2-1.1c0-1.3-0.6-1.9-1.9-1.9h-0.8
			C18.5,8.7,18.3,8.7,17.9,8.7z M29.7,16.4c0.4,1,1.1,1.6,2.2,1.6c0.5,0,1-0.1,1.3-0.4s0.6-0.6,0.8-1c0.2-0.4,0.3-0.9,0.4-1.4
			s0.1-1,0.1-1.5s0-1,0-1.6s-0.1-1.1-0.3-1.6C34,10,33.8,9.6,33.4,9.2c-0.3-0.3-0.9-0.5-1.5-0.5c-0.6,0-1.1,0.2-1.5,0.5
			c-0.3,0.3-0.6,0.7-0.8,1.2c-0.2,0.5-0.3,1-0.3,1.5s-0.1,1-0.1,1.4c0,0.6,0,1.2,0.1,1.6C29.4,15.4,29.6,15.9,29.7,16.4z M28.1,19.1
			C26.7,17.9,26,16,26,13.2c0-1.2,0.1-2.2,0.4-3.1c0.3-0.9,0.7-1.6,1.2-2.2c0.5-0.6,1.1-1.1,1.9-1.4C30.2,6.2,31.1,6,32,6
			c0.9,0,1.8,0.2,2.5,0.5s1.4,0.8,1.9,1.4s0.9,1.4,1.2,2.2C37.9,11,38,12,38,13.2s-0.1,2.2-0.4,3.1c-0.3,0.9-0.7,1.6-1.2,2.2
			s-1.1,1.1-1.9,1.4c-0.7,0.3-1.6,0.5-2.5,0.5C30.4,20.4,29.1,20,28.1,19.1z M41.2,18.8L38.8,6.6c0.6-0.2,1.2-0.4,1.7-0.4
			c0.6,0,1,0.1,1.2,0.4C42,6.8,42.1,7.3,42.2,8l0.8,5.2c0.3,1.5,0.4,2.6,0.5,3.2c0.1,0.6,0.1,0.9,0.1,1h0.1l1.7-10.7
			c0.5-0.1,1.2-0.1,2.1-0.1s1.6,0,2,0.1L51,17.2c0,0.1,0,0.2,0.1,0.2c0,0,0.1,0,0.2,0c0.1-1.3,0.3-2.7,0.6-4.3L53,6.4
			c0.4-0.1,0.8-0.1,1.3-0.1c0.6,0,1.2,0.1,1.6,0.2L56,6.7l-2.6,13.4c-0.9,0.1-1.7,0.1-2.4,0.1c-0.8,0-1.3-0.1-1.6-0.3
			c-0.3-0.2-0.5-0.6-0.6-1.2l-0.6-4.3c-0.2-1.6-0.4-3.1-0.6-4.6h-0.1c-0.1,1.3-0.4,2.8-0.7,4.6L45.9,20c-0.9,0.1-1.7,0.1-2.5,0.1
			c-0.7,0-1.3-0.1-1.6-0.3C41.5,19.6,41.4,19.3,41.2,18.8z"/>
	</g>
</g>
</svg>
